<svg xmlns="http://www.w3.org/2000/svg" version="1.0" width="1000.000000pt" height="1000.000000pt" viewBox="0 0 1000.000000 1000.000000" preserveAspectRatio="xMidYMid meet">

<g transform="translate(0.000000,1000.000000) scale(0.100000,-0.100000)" fill="#ffffff" stroke="none">
<path d="M930 9714 c0 -3 346 -570 770 -1259 l769 -1253 -762 -1219 c-419 -670 -773 -1235 -786 -1255 l-23 -38 604 0 603 0 516 858 c451 751 518 857 539 857 21 0 84 -101 512 -814 269 -448 485 -817 481 -821 -4 -4 -851 -297 -1880 -651 l-1873 -644 0 -681 0 -682 163 -56 c89 -31 806 -279 1592 -550 l1430 -494 -3 -283 c-2 -156 -6 -291 -8 -300 -4 -13 83 -46 468 -177 260 -89 480 -163 488 -164 13 -3 16 39 26 284 6 158 13 290 16 293 3 3 193 -60 424 -140 l419 -145 518 0 517 0 0 1581 0 1580 27 -3 c25 -3 153 -186 1109 -1578 l1081 -1575 471 -3 472 -2 0 2510 0 2510 -530 0 -530 0 0 -1586 0 -1585 -26 3 c-23 3 -172 214 -1045 1477 l-1019 1474 0 2269 0 2268 -1127 0 -1128 0 -510 -860 c-458 -771 -513 -859 -535 -860 -23 0 -74 82 -534 860 l-508 860 -594 0 c-327 0 -594 -3 -594 -6z m4470 -2486 c0 -2126 -2 -2480 -14 -2468 -8 8 -354 561 -770 1228 l-757 1213 712 1167 c836 1369 819 1342 825 1342 2 0 4 -1117 4 -2482z m0 -4438 c0 -698 -3 -1270 -6 -1270 -9 0 -778 251 -782 255 -2 2 6 243 17 537 12 293 21 565 21 605 l0 71 -515 -296 -514 -297 -1 -147 c0 -82 -3 -148 -7 -148 -5 0 -469 150 -1033 333 -992 323 -1025 334 -1028 359 -3 23 2 28 45 41 535 173 3005 975 3453 1122 173 57 323 104 333 104 16 1 17 -66 17 -1269z" fill="#ffffff"/>
</g>
</svg>